<?xml version="1.0" encoding="utf-8"?>
<!DOCTYPE svg PUBLIC "-//W3C//DTD SVG 1.1//EN" "http://www.w3.org/Graphics/SVG/1.1/DTD/svg11.dtd">
<svg version="1.1" xmlns="http://www.w3.org/2000/svg" xmlns:xlink="http://www.w3.org/1999/xlink" x="0px" y="0px"
	 width="480px" height="20px" viewBox="0 0 480 20" enable-background="new 0 0 450 20" xml:space="preserve">
  <g>
	<path fill="#4285F4" d="M428,0h12c1.1,0,2,0.9,2,2v12c0,1.1-0.9,2-2,2h-12c-1.1,0-2-0.9-2-2V2
		C426,0.9,426.9,0,428,0z"/>
	<path fill="#FFFFFF" d="M437.6,2.2c0,0-2.6,0-3.5,0c-1.6,0-3,1.2-3,2.6c0,1.5,1.1,2.6,2.7,2.6c0.1,0,0.2,0,0.3,0
		c-0.1,0.2-0.2,0.4-0.2,0.7c0,0.4,0.2,0.7,0.5,1c-0.2,0-0.4,0-0.6,0c-1.9,0-3.4,1.3-3.4,2.6c0,1.3,1.6,2.1,3.6,2.1
		c2.2,0,3.4-1.3,3.4-2.6c0-1-0.3-1.7-1.2-2.3c-0.3-0.2-0.9-0.8-0.9-1.1c0-0.4,0.1-0.6,0.7-1c0.6-0.5,1-1.1,1-1.9
		c0-0.9-0.4-1.8-1.1-2.1h1.1L437.6,2.2L437.6,2.2z M436.4,11c0,0.1,0,0.2,0,0.4c0,1.1-0.7,1.9-2.5,1.9c-1.3,0-2.3-0.9-2.3-1.9
		c0-1,1.2-1.9,2.5-1.9c0.3,0,0.6,0.1,0.9,0.1C435.8,10.1,436.3,10.4,436.4,11L436.4,11z M434.3,7.1c-0.9,0-1.8-1-1.9-2.3
		c-0.2-1.2,0.4-2.2,1.3-2.1c0.9,0,1.8,1,1.9,2.2S435.2,7.1,434.3,7.1z"/>
  </g>
    <path fill="#4101AF" d="M19.1,11.3l-0.3-9.8c0-0.4,0.3-0.7,0.7-0.7h2.9c0.4,0,0.7,0.3,0.6,0.7l-1.7,9.8H19.1z M21.7,14.4
	    c0,0.7-0.6,1.3-1.3,1.3H20c-0.7,0-1.3-0.6-1.3-1.3v-0.4c0-0.7,0.6-1.3,1.3-1.3h0.4c0.7,0,1.3,0.6,1.3,1.3V14.4z M8.7,0.8
	    C3.9,0.8,0,4.1,0,8.3s3.9,7.5,8.7,7.5s8.7-3.4,8.7-7.5S13.5,0.8,8.7,0.8z M14.4,6.8h-1.7l-2.7,2.8v1.7h2.2v1.5H6.5v-1.5h2.2V9.5
	    L4.6,5.3H3.6V3.8h4.3v1.5H7l2.4,2.5L10.1,7V5.3h4.3L14.4,6.8L14.4,6.8z"/>
    <path fill="#1E8CBE" d="M44.9,8.3c0,2.2,1.3,4,3.2,4.9L45.4,6C45,6.7,44.9,7.5,44.9,8.3z M54.3,8c0-0.7-0.2-1.1-0.5-1.5
	    c-0.3-0.5-0.6-0.8-0.6-1.3c0-0.5,0.4-1,0.9-1c0,0,0,0,0.1,0c-1-0.9-2.3-1.4-3.8-1.4c-2,0-3.7,1-4.7,2.5c0.1,0,0.3,0,0.4,0
	    c0.6,0,1.5-0.1,1.5-0.1c0.3,0,0.3,0.4,0,0.5c0,0-0.3,0-0.6,0.1l2,5.9L50.3,8l-0.9-2.3c-0.3,0-0.6-0.1-0.6-0.1c-0.3,0-0.3-0.5,0-0.5
	    c0,0,0.9,0.1,1.5,0.1c0.6,0,1.5-0.1,1.5-0.1c0.3,0,0.3,0.4,0,0.5c0,0-0.3,0-0.6,0.1l2,5.9l0.6-1.8C54.1,9,54.3,8.5,54.3,8L54.3,8z
	     M50.6,8.7l-1.7,4.8c0.5,0.1,1,0.2,1.6,0.2c0.7,0,1.3-0.1,1.9-0.3c0,0,0,0,0-0.1L50.6,8.7L50.6,8.7z M55.4,5.6c0,0.2,0,0.4,0,0.6
	    c0,0.6-0.1,1.2-0.4,2L53.3,13c1.7-0.9,2.8-2.7,2.8-4.7C56.1,7.3,55.9,6.4,55.4,5.6z M50.5,0.8c-4.1,0-7.5,3.4-7.5,7.5
	    s3.4,7.5,7.5,7.5S58,12.4,58,8.3S54.6,0.8,50.5,0.8z M50.5,14.8c-3.6,0-6.6-2.9-6.6-6.6s2.9-6.6,6.6-6.6s6.6,2.9,6.6,6.6
	    S54.1,14.8,50.5,14.8z"/>
    <path fill="#F89738" d="M127,6.4h-0.8c-0.5,0-1-0.4-1-0.9l0,0c0-2.7-2.2-4.7-4.9-4.7h-2.5c-2.7,0-4.9,2.2-4.9,4.8v5.3
	    c0,2.7,2.2,4.8,4.9,4.8h5.3c2.7,0,4.9-2.2,4.9-4.8V7.5C128,7,127.6,6.4,127,6.4z M117.7,4.5h2.8c0.5,0,0.9,0.4,0.9,0.9
	    s-0.4,0.9-0.9,0.9h-2.8c-0.5,0-0.9-0.4-0.9-0.9S117.2,4.5,117.7,4.5z M123.3,12h-5.6c-0.5,0-0.9-0.4-0.9-0.9c0-0.5,0.4-0.9,0.9-0.9
	    h5.6c0.5,0,0.9,0.4,0.9,0.9C124.3,11.6,123.8,12,123.3,12z"/>
  <g>
	<path fill="#171A21" d="M184,0.3h12c1.1,0,2,0.9,2,2v12c0,1.1-0.9,2-2,2h-12c-1.1,0-2-0.9-2-2v-12
		C182,1.2,182.9,0.3,184,0.3z"/>
	<linearGradient id="Steam_Gradient" gradientUnits="userSpaceOnUse" x1="183.75" y1="8.2613" x2="196.25" y2="8.2613">
		<stop  offset="0" style="stop-color:#E9E9E8"/>
		<stop  offset="1" style="stop-color:#B3B2AF"/>
	</linearGradient>
    <path fill="url(#Steam_Gradient)" d="M195.3,6.7c0,0.6-0.5,1.2-1.2,1.2c-0.6,0-1.2-0.5-1.2-1.2s0.5-1.2,1.2-1.2
		C194.8,5.5,195.3,6,195.3,6.7z M194.8,8.6l-1.4,1.2c0,0.1,0,0.2,0,0.3c0,1-0.8,1.8-1.8,1.8c-0.9,0-1.6-0.6-1.8-1.4l-3.5-1.2
		c-0.3,0.2-0.6,0.3-1,0.3c-0.9,0-1.6-0.7-1.6-1.6c0-0.9,0.7-1.6,1.6-1.6c0.8,0,1.4,0.5,1.6,1.3l3.3,1.1c0.3-0.3,0.8-0.5,1.3-0.5
		l0.5-1.5c0,0,0-0.1,0-0.1c0-1.1,0.9-2.1,2.1-2.1c1.2,0,2.1,0.9,2.1,2.1C196.3,7.6,195.7,8.3,194.8,8.6L194.8,8.6z M186.4,7.5
		c-0.2-0.3-0.6-0.6-1-0.6c-0.6,0-1.1,0.5-1.1,1.1c0,0.6,0.5,1.1,1.1,1.1c0.1,0,0.2,0,0.3,0l-0.5-0.2c-0.4-0.2-0.6-0.8-0.4-1.2
		c0.2-0.4,0.8-0.6,1.2-0.4L186.4,7.5z M192.5,6.7c0,0.9,0.7,1.6,1.6,1.6s1.6-0.7,1.6-1.6c0-0.9-0.7-1.6-1.6-1.6S192.5,5.8,192.5,6.7
		z M192.6,10.3c0-0.7-0.6-1.2-1.2-1.2c-0.1,0-0.2,0-0.3,0l0.7,0.2c0.4,0.2,0.6,0.8,0.4,1.2c-0.2,0.4-0.8,0.6-1.2,0.4l-0.7-0.3
		c0.2,0.5,0.6,0.9,1.2,0.9C192,11.5,192.6,10.9,192.6,10.3L192.6,10.3z" />
  </g>
  <g>
	<polygon fill="#F6C215" points="229,9.8 225.5,11.6 222,9.8 222,6.1 225.5,4.3 229,6.1"/>
	<polygon fill="#D18C39" points="233,4.5 233,11.5 230,10 230,6"/>
	<polygon fill="#4650A2" points="218,4.5 218,11.5 221,10 221,6"/>
	<polygon fill="#3995BD" points="224.3,0 218.5,3.5 221.2,5.3 224.5,3.3"/>
	<polygon fill="#A02D36" points="225.8,16 231.8,12.5 229.1,10.7 225.6,12.7"/>
	<polygon fill="#90B73E" points="231.6,3.5 225.7,0 225.6,3.3 228.9,5.3"/>
	<polygon fill="#BC3C85" points="218.6,12.5 224.6,16 224.8,12.7 221.3,10.7"/>
  </g>
  <path fill="#FF0000" d="M260.9,0.3h-1.2c-0.1,0-0.2,0.1-0.2,0.1c0,0.1-1.9,6.2-2,6.7c-0.1,0.4-0.4,1.6-0.5,1.9l-0.6-1.9
	c-0.2-0.5-1.7-5.1-1.7-5.3c0-0.1-0.1-0.2-0.2-0.2h-1.2c-0.1,0-0.2,0.1-0.1,0.2c0,0.1,2.2,6.4,3.1,8.9v5.3c0,0.1,0,0.2,0.1,0.2h1.1
	c0.1,0,0.1-0.1,0.1-0.2V11v-0.2c0.7-2.2,3.4-10.2,3.5-10.3C261,0.4,261,0.3,260.9,0.3z"/>
    <g>
	<path fill="#00A0E3" d="M301.2,11.6h0.7c0,0.5,0,1.1,0,1.6h-3.8v-1.6h1H301.2z"/>
	<polygon fill="#00A0E3" points="301.9,3.3 301.9,4.8 301.1,4.8 298.9,4.8 298.1,4.8 298.1,3.3"/>
	<polygon fill="#00A0E3" points="298.5,8.2 301.2,11.6 299,11.6 298.1,10.4 298.1,8.7"/>
	<polygon fill="#00A0E3" points="301.1,4.8 298.5,8.2 298.1,7.7 298.1,6 298.9,4.8"/>
	<polygon fill="#00A0E3" points="298.5,8.2 298.1,8.7 298.1,7.7"/>
	<polygon fill="#00A0E3" points="298.1,8.7 298.1,10.4 297.4,9.5"/>
	<polygon fill="#00A0E3" points="298.1,7.7 298.1,8.7 297.4,9.5 296.7,8.7 296.7,7.7 297.4,6.8"/>
	<polygon fill="#00A0E3" points="298.1,6 298.1,7.7 297.4,6.8"/>
	<polygon fill="#00A0E3" points="297.4,9.5 296.7,10.4 296.7,8.7"/>
	<polygon fill="#00A0E3" points="296.7,6 297.4,6.8 296.7,7.7"/>
	<polygon fill="#00A0E3" points="295.8,11.6 296.7,11.6 296.7,13.3 295,13.3 295,11.6"/>
	<polygon fill="#00A0E3" points="296.7,8.7 296.7,10.4 295.8,11.6 295,11.6 293.9,11.6 293.9,11.3 296.3,8.2"/>
	<polygon fill="#00A0E3" points="296.7,7.7 296.7,8.7 296.3,8.2"/>
	<polygon fill="#00A0E3" points="296.7,6 296.7,7.7 296.3,8.2 293.9,5 293.9,4.8 295.9,4.8"/>
	<polygon fill="#00A0E3" points="296.7,3.3 296.7,4.8 295.9,4.8 293.9,4.8 293.9,3.3"/>
	<rect x="293.9" y="11.6" fill="#016AA3" width="1.2" height="1.6"/>
	<path fill="#016AA3" d="M293.6,11.6h0.2v1.6h-1V12c0.1-0.1,0.2-0.3,0.3-0.4H293.6z"/>
	<polygon fill="#016AA3" points="293.9,11.3 293.9,11.6 293.6,11.6"/>
	<path fill="#8A8C8F" d="M293.9,9.4v1.9l-0.2,0.3h-0.4C293.6,11,293.9,10.2,293.9,9.4z"/>
	<path fill="#8A8C8F" d="M293.9,5v4.4c0-1-0.4-2-1-2.7V4.8h0.8L293.9,5z"/>
	<polygon fill="#016AA3" points="293.9,4.8 293.9,5 293.7,4.8"/>
	<polygon fill="#016AA3" points="293.7,4.8 292.9,4.8 292.9,3.3 293.9,3.3 293.9,4.8"/>
	<path fill="#8A8C8F" d="M293.9,9.4c0,0.8-0.2,1.6-0.7,2.3h-0.3V6.7C293.5,7.4,293.9,8.4,293.9,9.4z"/>
	<path fill="#016AA3" d="M292.9,11.6h0.3c-0.1,0.1-0.2,0.3-0.3,0.4V11.6z"/>
	<path fill="#8A8C8F" d="M292.9,12v1.2h-0.6v-0.7C292.5,12.4,292.7,12.2,292.9,12z"/>
	<path fill="#8A8C8F" d="M292.9,11.6V12c-0.2,0.2-0.4,0.4-0.6,0.5V9.4V6.2c0.2,0.2,0.4,0.3,0.6,0.5V11.6z"/>
	<path fill="#8A8C8F" d="M292.9,4.8v1.9c-0.2-0.2-0.4-0.4-0.6-0.5V4.8H292.9z"/>
	<rect x="292.3" y="3.3" fill="#8A8C8F" width="0.6" height="1.6"/>
	<path fill="#8A8C8F" d="M292.3,9.4v3.2c-0.6,0.4-1.3,0.7-2.1,0.7c-1.1,0-2.1-0.5-2.8-1.3c0.3-0.3,0.5-0.7,0.7-1.1
		c0.1-0.1,0.1-0.3,0.1-0.4c0.4,0.7,1.1,1.2,1.9,1.2C291.4,11.6,292.3,10.6,292.3,9.4z"/>
	<path fill="#8A8C8F" d="M292.3,6.2v3.2c0-1.2-0.9-2.3-2.1-2.3c-0.8,0-1.6,0.5-1.9,1.2c-0.2-0.6-0.4-1.1-0.8-1.6
		c0.7-0.8,1.7-1.3,2.8-1.3C291,5.5,291.7,5.8,292.3,6.2z"/>
	<rect x="291.3" y="3.3" fill="#8A8C8F" width="1" height="1.6"/>
	<path fill="#B72667" d="M288.4,9.4c0,0.2,0,0.4,0,0.6h-0.3C288,9.8,288,9.6,288,9.4c0-0.2,0-0.5,0.1-0.7h0.2
		C288.4,8.9,288.4,9.2,288.4,9.4z"/>
	<path fill="#B72667" d="M288.3,8.7h-0.2c0-0.1,0.1-0.3,0.2-0.4C288.3,8.5,288.3,8.6,288.3,8.7z"/>
	<path fill="#8A8C8F" d="M288.3,10.4c0,0.2-0.1,0.3-0.1,0.4h-1.4c-0.1-0.1-0.1-0.3-0.2-0.4c0.1-0.1,0.1-0.3,0.2-0.4h1.3
		C288.1,10.2,288.2,10.3,288.3,10.4z"/>
	<path fill="#77202D" d="M286.8,10.9h1.4c-0.2,0.4-0.4,0.8-0.7,1.1C287.2,11.7,286.9,11.3,286.8,10.9z"/>
	<path fill="#77202D" d="M288.3,8.3c-0.1,0.1-0.1,0.3-0.2,0.4h-1.3c0-0.1-0.1-0.3-0.2-0.4c0.2-0.6,0.5-1.1,0.8-1.6
		C287.8,7.2,288.1,7.7,288.3,8.3z"/>
	<path fill="#77202D" d="M286.8,8.7h1.3C288,8.9,288,9.2,288,9.4c0,0.2,0,0.4,0.1,0.6h-1.3c0.1-0.2,0.1-0.4,0.1-0.6
		C286.9,9.2,286.8,8.9,286.8,8.7z"/>
	<path fill="#B72667" d="M284.7,5.5c1.1,0,2.1,0.5,2.7,1.3c-0.4,0.4-0.7,1-0.8,1.6c-0.4-0.7-1.1-1.2-1.9-1.2c-1,0-1.8,0.7-2.1,1.6
		h-1.6C281.4,6.9,282.9,5.5,284.7,5.5z"/>
	<path fill="#B72667" d="M287.5,12c-0.7,0.8-1.6,1.3-2.7,1.3c-1.9,0-3.4-1.4-3.7-3.2h1.6c0.3,0.9,1.1,1.6,2.1,1.6
		c0.6,0,1.2-0.3,1.6-0.8h0.4C286.9,11.3,287.2,11.7,287.5,12z"/>
	<path fill="#77202D" d="M286.9,9.4c0,0.2,0,0.4-0.1,0.6h-0.3c0-0.2,0-0.4,0-0.6c0-0.2,0-0.4,0.1-0.7h0.2
		C286.8,8.9,286.9,9.2,286.9,9.4z"/>
	<path fill="#8A8C8F" d="M286.5,10h0.3c0,0.2-0.1,0.3-0.2,0.4C286.6,10.3,286.5,10.2,286.5,10z"/>
	<path fill="#8A8C8F" d="M286.8,8.7h-0.2c0-0.1,0.1-0.3,0.1-0.4C286.7,8.4,286.7,8.6,286.8,8.7z"/>
	<path fill="#B72667" d="M282.6,8.7h3.9c0,0.2-0.1,0.4-0.1,0.7c0,0.2,0,0.4,0,0.6h-3.9c-0.1-0.2-0.1-0.4-0.1-0.6
		C282.5,9.2,282.6,8.9,282.6,8.7z"/>
	<path fill="#B72667" d="M281.1,8.7h1.6c-0.1,0.2-0.1,0.4-0.1,0.7c0,0.2,0,0.4,0.1,0.6H281c0-0.2,0-0.4,0-0.6
		C281,9.2,281,8.9,281.1,8.7z"/>
  </g>
  <path fill="#4C75A3" d="M329.8,13.2h1c0,0,0.3,0,0.4-0.2c0.1-0.2,0.1-0.5,0.1-0.5s0-1.4,0.6-1.6
	    c0.6-0.2,1.3,1.4,2.1,2c0.6,0.5,1.1,0.4,1.1,0.4l2.1,0c0,0,1.1-0.1,0.6-1c0-0.1-0.3-0.7-1.6-2c-1.3-1.4-1.2-1.1,0.5-3.5
	    c1-1.4,1.4-2.3,1.3-2.7c-0.1-0.4-0.8-0.3-0.8-0.3l-2.4,0c0,0-0.2,0-0.3,0.1c-0.1,0.1-0.2,0.3-0.2,0.3s-0.4,1.1-0.9,2.1
	    c-1.1,2-1.5,2.1-1.7,2c-0.4-0.3-0.3-1.2-0.3-1.8c0-1.9,0.3-2.7-0.5-2.9c-0.3-0.1-0.5-0.1-1.1-0.1c-0.9,0-1.6,0-2,0.2
	    c-0.3,0.1-0.5,0.5-0.4,0.5c0.2,0,0.5,0.1,0.7,0.4c0.2,0.4,0.2,1.2,0.2,1.2s0.1,2.3-0.3,2.6c-0.3,0.2-0.8-0.2-1.7-2
	    c-0.5-0.9-0.9-1.9-0.9-1.9s-0.1-0.2-0.2-0.3c-0.2-0.1-0.4-0.2-0.4-0.2l-2.3,0c0,0-0.3,0-0.5,0.2c-0.1,0.1,0,0.4,0,0.4
	    s1.8,4.6,3.8,6.9C327.7,13.4,329.8,13.2,329.8,13.2"/>
  <g>
	<path fill="#01AFE9" d="M78,4.2c0.4-0.5,0.6-1.1,1.1-1.6c0.6-0.7,1.4-1.3,2.3-1.8c0.2-0.1,0.4-0.1,0.5,0.1c0.4,0.4,0.9,0.9,1.3,1.3
		c-1.7,0.8-2.9,2-3.7,3.7c-0.5-0.5-1-1-1.5-1.5C78,4.4,78,4.3,78,4.2z"/>
	<path fill="#01AFE9" d="M83.2,2.2c3.2-1.4,7.2-0.2,8.9,3.2c2.3,4.4-0.4,9.6-5.4,10.3c-2.7,0.3-4.9-0.6-6.5-2.8
		c-1.5-2.1-1.8-4.5-0.8-6.9c1.8,1.8,3.6,3.5,5.3,5.3c0.1,0.1,0.2,0.3,0.4,0.3c0.6,0.2,1.3,0.3,2,0.4c0.8,0.3,1.7,0.4,2.6,0.6
		c-0.2-0.9-0.4-1.8-0.5-2.7c-0.1-0.7-0.2-1.3-0.4-2c-0.1-0.2-0.2-0.3-0.3-0.4C86.7,5.8,85,4,83.2,2.2z"/>
	<path fill="#383838" d="M85.3,11.6c-0.2-0.1-0.3-0.2-0.4-0.3c-1.8-1.8-3.6-3.5-5.3-5.3l0,0c0.8-1.7,2-2.9,3.7-3.7l0,0
		C85,4,86.7,5.8,88.5,7.6c0.1,0.1,0.3,0.2,0.3,0.4C87.2,8.7,86,9.9,85.3,11.6z"/>
	<path fill="#FEFEFE" d="M85.3,11.6C86,9.9,87.2,8.7,88.8,8c0.2,0.6,0.3,1.3,0.4,2c-0.9,0.4-1.6,1.1-2.1,2.1
		C86.5,11.9,85.9,11.8,85.3,11.6z"/>
	<path fill="#383838" d="M87.2,12c0.4-1,1.1-1.6,2.1-2.1c0.2,0.9,0.3,1.7,0.5,2.7C88.9,12.4,88,12.3,87.2,12z"/>
  </g>
  <g>
	<circle cx="153.1" cy="7.7" r="3.5"/>
	<path d="M157.5,4.5c-0.2-0.1-0.4,0.1-0.3,0.2c0.3,0.6,0.6,1.6,0.6,2.8c0,1.3-0.4,2.3-0.7,2.9c-0.1,0.2,0.1,0.3,0.3,0.3l3.9-2.2
		c0.5-0.3,0.6-1,0.1-1.4L157.5,4.5z"/>
	<path d="M148.3,5.5c0,0.2,0.3,0.3,0.4,0.1c0.4-0.6,1-1.4,2-2c1.1-0.7,2.2-0.9,2.8-1c0.2,0,0.2-0.3,0.1-0.4l-4-2.2
		c-0.5-0.3-1.2,0.1-1.2,0.7L148.3,5.5z"/>
	<path d="M153.5,12.7c0.2-0.1,0.1-0.4-0.1-0.4c-0.7,0-1.7-0.2-2.8-0.7c-1.1-0.6-1.9-1.4-2.3-1.9c-0.1-0.2-0.4-0.1-0.3,0.1l0.2,4.5
		c0,0.6,0.7,1,1.2,0.7L153.5,12.7z"/>
  </g>
  <g>
	<rect x="358" y="7.7" fill="#3667AF" width="12" height="2"/>
	<rect x="358" y="4.7" fill="#55A2D9" width="12" height="2"/>
	<path fill="#A3D9F6" d="M368.1,1.7H360c-1,0-1.9,0.7-1.9,1.5v0.5h12V3.2C370,2.4,369.1,1.7,368.1,1.7z"/>
	<path fill="#24488D" d="M358,10.7v0.6c0,1.1,0.9,1.9,1.9,1.9h5.2v2.5l2.5-2.5h0.5c1.1,0,1.9-0.9,1.9-1.9v-0.6H358z"/>
  </g>
  <g>
	<path fill="#3B5998" d="M405.1,16c0.5,0,0.9-0.4,0.9-0.9V0.9c0-0.5-0.4-0.9-0.9-0.9h-14.2c-0.5,0-0.9,0.4-0.9,0.9
		v14.2c0,0.5,0.4,0.9,0.9,0.9H405.1z"/>
	<path fill="#FFFFFF" d="M401,16V9.8h2.1l0.3-2.4H401V5.8c0-0.7,0.2-1.2,1.2-1.2l1.3,0V2.5c-0.2,0-1-0.1-1.9-0.1
		c-1.8,0-3.1,1.1-3.1,3.2v1.8h-2.1v2.4h2.1V16H401z"/>
  </g>    
  <g>
    <path fill-rule="evenodd" clip-rule="evenodd" fill="#FDB830" d="M472.4,3.9c0.9,0.5,1.7,1.2,2.2,2.1c0.5,0.9,0.8,1.9,0.8,2.9
		c0,1.1-0.3,2.1-0.8,2.9c-0.5,0.9-1.3,1.6-2.2,2.1c-0.9,0.5-1.9,0.8-3.1,0.8c-1.1,0-2.2-0.3-3.1-0.8c-0.9-0.5-1.7-1.2-2.2-2.1
		c-0.6-0.9-0.8-1.8-0.8-2.9c0-1.1,0.3-2.1,0.8-2.9c0.5-0.9,1.3-1.6,2.2-2.1c0.9-0.5,1.9-0.8,3.1-0.8C470.5,3.2,471.5,3.4,472.4,3.9
		 M469.3,2c-1.4,0-2.6,0.3-3.7,1c-1.1,0.6-2,1.5-2.6,2.5c-0.7,1.1-1,2.2-1,3.5c0,1.3,0.3,2.5,1,3.5c0.7,1.1,1.5,1.9,2.6,2.5
		c1.1,0.6,2.3,0.9,3.7,1c1.4,0,2.6-0.3,3.7-1c1.1-0.6,2-1.5,2.6-2.5c0.6-1.1,1-2.2,1-3.5c0-1.3-0.3-2.5-1-3.5
		c-0.7-1-1.5-1.9-2.6-2.5C471.9,2.3,470.7,2,469.3,2z" />
    <path fill-rule="evenodd" clip-rule="evenodd" d="M473.7,5.6h-0.6v0.5h0.6V5.6z M473.1,4.2h0.6v0.5h-0.6V4.2z M474.6,2.8H474V2.3
		h0.6V2.8z M475.7,1.7h1.1V1.1h-1.1v1.7h-1.1v0.5h-0.9v0.4h-0.5v0.5h-0.6v0.8H472v0.5h-0.4v0.5h-0.4c-0.8,1.2-1.5,2.4-2,3.5
		c-1.1-1.4-2.1-2.3-3-2.6c-0.3-0.1-0.4,0-0.5,0.2c-0.1,0.2,0,0.5,0.3,0.8c0.9,1,1.8,2.4,2.6,4.2c0.1,0.3,0.4,0.4,0.8,0.5
		c0.4,0,0.7-0.1,0.8-0.4c0.6-1.5,1.3-2.7,2-3.8V7.9h0.4V7.4h0.5V6.7h0.6V6.1h0.6V5.6h0.4V4.9h0.5V4.5h0.5V3.4h0.6V2.8h0.6V2.3h-0.6
		v0.5h-0.6v0.5h-0.6v0.5h-0.6V3.4h0.6V1.7H475.7z" />
    <rect x="475.7" y="1.7" fill="#FDB830" width="0.6" height="0.6" />
    <rect x="473.1" y="4.2" fill="#FFFFFF" width="0.6" height="0.5" />
    <rect x="477.4" y="1.1" fill="#FDB830" width="0.6" height="0.6" />
    <polyline points="477.4,1.1 477.4,0.6 476.8,0.6 476.8,1.1 	" />
    <rect x="477.4" fill="#FDB830" width="0.6" height="0.6" />
  </g>
</svg>
